<?xml version="1.0" standalone="no"?>
<!DOCTYPE svg PUBLIC "-//W3C//DTD SVG 20010904//EN"
 "http://www.w3.org/TR/2001/REC-SVG-20010904/DTD/svg10.dtd">
<svg version="1.0" xmlns="http://www.w3.org/2000/svg"
 width="500.000000pt" height="500.000000pt" viewBox="0 0 500.000000 500.000000"
 preserveAspectRatio="xMidYMid meet">
<metadata>
Created by potrace 1.14, written by Peter Selinger 2001-2017
</metadata>
<g transform="translate(0.000000,500.000000) scale(0.100000,-0.100000)"
fill="#000000" stroke="none">
<path d="M1547 4821 c-120 -99 -232 -192 -250 -208 -18 -15 -53 -44 -77 -63
-24 -19 -127 -104 -229 -189 -102 -84 -200 -165 -218 -180 -17 -14 -62 -52
-100 -83 -37 -31 -140 -117 -229 -190 -88 -73 -176 -146 -195 -161 -19 -16
-82 -67 -141 -115 -99 -80 -108 -90 -105 -119 2 -27 131 -162 1002 -1039 550
-554 1152 -1160 1338 -1348 1037 -1046 1119 -1126 1150 -1126 28 0 49 14 142
92 11 9 65 53 120 98 55 45 109 89 120 98 11 9 56 46 100 82 44 36 107 88 140
115 33 28 81 66 105 85 24 19 60 49 80 65 19 17 58 48 85 70 28 22 59 47 70
56 11 10 65 54 120 99 55 45 114 93 130 107 17 13 90 72 163 131 117 94 132
110 132 137 0 24 -27 62 -138 191 -75 88 -195 229 -267 314 -71 84 -135 158
-140 164 -6 6 -60 70 -120 141 -60 72 -112 132 -115 135 -3 3 -41 48 -85 100
-43 52 -95 113 -114 135 -20 22 -55 63 -78 90 -23 28 -51 61 -63 75 -12 14
-31 36 -43 50 -12 14 -44 52 -72 85 -27 33 -52 62 -55 65 -3 3 -39 46 -80 95
-41 50 -79 95 -85 101 -5 6 -28 33 -50 60 -22 26 -69 82 -105 124 -103 121
-204 242 -354 420 -76 91 -155 183 -175 206 -20 22 -54 62 -76 88 -43 52 -43
52 -121 142 -28 32 -111 129 -184 214 -72 85 -142 166 -153 180 -12 14 -101
117 -197 230 -96 113 -177 207 -180 210 -3 3 -30 34 -60 70 -30 36 -59 68 -65
72 -33 25 -65 5 -278 -171z"/>
</g>
</svg>
